# xmcd
#
# Track frame offsets:
#	150
#	10504
#	24000
#	36312
#	47091
#	56006
#	67212
#	79312
#	89108
#	100291
#	112987
#	122515
#	131298
#	143918
#	154165
#	163783
#	175455
#	186992
#	200377
#	210930
#	222377
#	233480
#	243672
#	253665
#	265167
#	275620
#	286548
#	299043
#	310769
#	321152
#	332223
#	343145
#
# Disc length: 4713 seconds
#
# Revision: 2
# Processed by: cddbd v1.5.2PL0 Copyright (c) Steve Scherf et al.
# Submitted via: EZCDAudioConverter 7.1.5.1
#
DISCID=e3126720
DTITLE=Connie Smith - Born To Sing [Box CD 04]
DYEAR=2001
DGENRE=USA Country
TTITLE0=On And On And On (Recorded 1966 - Released 1967  LSP-3768)
TTITLE1=Everybody Loves Somebody (Recorded 1966 - Released 1967  LSP-3725)
TTITLE2=That's What Lonesome Is (Recorded 1966 - Released 1967  LSP-3768)
TTITLE3=In Case You Ever Change Your Mind (Recorded 1966 - Released 1967  LSP-
TTITLE3=3768)
TTITLE4=It Comes And Goes (Recorded 1966 - Released 1967  LSP-3768)
TTITLE5=My Whole World Is Falling Down (Recorded 1966 - Released 1967  LSP-376
TTITLE5=8)
TTITLE6=It's Not The End Of Everything (Recorded 1966 - Released 1967  LSP-376
TTITLE6=8)
TTITLE7=Cincinnati, Ohio (Recorded 1966 - Released 1967  LSP-3768)
TTITLE8=I Love You Enough (For Both Of Us) (Recorded 1967 - Released 2001  BCD
TTITLE8=16368)
TTITLE9=Only For Me (Recorded 1967 - Released 2001  BCD-16368)
TTITLE10=I'll Come Running (1967  47-9108)
TTITLE11=Easy Come - Easy Go (1967  LSP-3768)
TTITLE12=I Love You Drops (1967  LSP-3768)
TTITLE13=Don't Feel Sorry For Me (Recorded 1967 - Released 1968  LSP-4002)
TTITLE14=I'll Love You Enough (For Both Of Us) (Recorded 1967 - Released 1969 
TTITLE14=LSP-4132)
TTITLE15=Burning Bridges (1967  LSP-3889)
TTITLE16=Don't Keep Me Lonely Too Long (1967  LSP-3889)
TTITLE17=There Goes My Everything (1967  LSP-3889)
TTITLE18=Touch My Heart (1967  LSP-3889)
TTITLE19=Walk Through This World With Me (Recorded 1967 - Released 2001  BCD-1
TTITLE19=6368)
TTITLE20=It's Such A Pretty World Today (1967  LSP-3889)
TTITLE21=If Teardrops Were Silver (1967  LSP-3889)
TTITLE22=It Only Hurts For A Little While (1967  LSP-3889)
TTITLE23=How Much Lonelier Can Lonely Be (Recorded 1967 - Released 1969  LSP-4
TTITLE23=077)
TTITLE24=I's Rather Be A Fool (Recorded 1967 - Released 2001  BCD-16368)
TTITLE25=Surely (1967  LSP-3889)
TTITLE26=I'm Your Woman (1967  LSP-3889)
TTITLE27=Burning A Hole In My Mind (Recorded 1967 - Released 2001  BCD-16368)
TTITLE28=Baby's Back Again (Recorded 1967 - Released 1968  LSP-4002)
TTITLE29=Haunted Heart (Recorded 1967 - Released 2001  BCD-16368)
TTITLE30=Burning A Hole In My Mind (Recorded 1967 - Released 1968  LSP-4002)
TTITLE31=The Twelfth Of Never (Recorded 1967 - Released 2001  BCD-16368)
EXTD=
EXTT0=
EXTT1=
EXTT2=
EXTT3=
EXTT4=
EXTT5=
EXTT6=
EXTT7=
EXTT8=
EXTT9=
EXTT10=
EXTT11=
EXTT12=
EXTT13=
EXTT14=
EXTT15=
EXTT16=
EXTT17=
EXTT18=
EXTT19=
EXTT20=
EXTT21=
EXTT22=
EXTT23=
EXTT24=
EXTT25=
EXTT26=
EXTT27=
EXTT28=
EXTT29=
EXTT30=
EXTT31=
PLAYORDER=
